<?xml version="1.0" standalone="no"?><!DOCTYPE svg PUBLIC "-//W3C//DTD SVG 1.1//EN" "http://www.w3.org/Graphics/SVG/1.1/DTD/svg11.dtd"><svg class="icon" width="20px" height="20.00px" viewBox="0 0 1024 1024" version="1.1" xmlns="http://www.w3.org/2000/svg"><path d="M948.29521484 729.6875a129.375 129.375 0 0 0-31.5-38.8125 140.625 140.625 0 0 0-21.375-14.625 149.0625 149.0625 0 0 0-47.8125-16.875 146.8125 146.8125 0 0 0-38.25 0 138.9375 138.9375 0 0 0-38.8125 9l-106.3125-92.25a136.125 136.125 0 0 0 16.875-35.4375 130.5 130.5 0 0 0 0-73.6875 136.6875 136.6875 0 0 0-15.75-34.3125l98.4375-86.0625a147.375 147.375 0 0 0 33.1875 6.1875 144.5625 144.5625 0 0 0 34.3125 0 132.75 132.75 0 0 0 18.5625-9.5625 122.625 122.625 0 0 0 20.8125-9.5625 112.5 112.5 0 0 0 18.5625-12.9375 92.25 92.25 0 0 0 24.1875-33.75 82.125 82.125 0 0 0 6.1875-37.6875 88.875 88.875 0 0 0-11.8125-37.125 109.125 109.125 0 0 0-28.6875-32.0625 128.25 128.25 0 0 0-19.6875-12.375 140.0625 140.0625 0 0 0-21.375-9 147.9375 147.9375 0 0 0-45-7.3125 144.5625 144.5625 0 0 0-22.5 0 138.9375 138.9375 0 0 0-21.9375 5.0625 125.4375 125.4375 0 0 0-20.25 9 112.5 112.5 0 0 0-18 12.375 95.625 95.625 0 0 0-22.5 27 82.6875 82.6875 0 0 0-6.75 68.625 95.0625 95.0625 0 0 0 15.75 30.9375l-87.75 77.0625a183.375 183.375 0 0 0-23.0625-11.25 186.75 186.75 0 0 0-24.1875-7.875 201.9375 201.9375 0 0 0-72-5.0625 192.375 192.375 0 0 0-62.4375 17.4375l-95.0625-82.125a90 90 0 0 0 11.25-28.6875 82.125 82.125 0 0 0-10.6875-56.25 96.1875 96.1875 0 0 0-20.8125-24.1875 112.5 112.5 0 0 0-18-12.375 122.0625 122.0625 0 0 0-20.25-9 136.125 136.125 0 0 0-21.9375-5.0625 146.8125 146.8125 0 0 0-67.5 5.0625 138.375 138.375 0 0 0-21.375 9 129.9375 129.9375 0 0 0-19.6875 12.375 112.5 112.5 0 0 0-28.6875 32.0625 88.875 88.875 0 0 0-11.8125 37.125 82.125 82.125 0 0 0 6.1875 37.6875 92.25 92.25 0 0 0 24.1875 33.75 112.5 112.5 0 0 0 18.5625 12.9375 122.625 122.625 0 0 0 19.6875 6.1875 135.5625 135.5625 0 0 0 22.5 5.625 147.9375 147.9375 0 0 0 56.25 0 140.625 140.625 0 0 0 26.4375-5.625l92.25 77.625a140.625 140.625 0 0 0-22.5 39.375 130.5 130.5 0 0 0-2.8125 87.1875 140.0625 140.0625 0 0 0 22.5 41.0625l-97.875 84.9375-15.75-7.3125a141.75 141.75 0 0 0-33.75-8.4375 149.625 149.625 0 0 0-66.9375 7.3125 145.125 145.125 0 0 0-45 25.3125 129.375 129.375 0 0 0-31.5 38.8125A112.5 112.5 0 0 0 62.35771484 773.5625a106.875 106.875 0 0 0 6.1875 45.5625 112.5 112.5 0 0 0 26.4375 40.5 121.5 121.5 0 0 0 20.25 15.75 128.25 128.25 0 0 0 22.5 11.25 137.25 137.25 0 0 0 24.75 6.75 149.0625 149.0625 0 0 0 100.6875-18 141.1875 141.1875 0 0 0 24.1875-15.75 130.5 130.5 0 0 0 24.75-29.25 117.5625 117.5625 0 0 0 14.0625-32.625 112.5 112.5 0 0 0 3.375-33.75 106.3125 106.3125 0 0 0-7.3125-32.625l109.125-95.0625a192.9375 192.9375 0 0 0 39.9375 13.5 201.9375 201.9375 0 0 0 42.1875 4.5 198.5625 198.5625 0 0 0 50.0625-6.1875 189.5625 189.5625 0 0 0 24.1875-7.875 182.25 182.25 0 0 0 22.5-11.25l101.8125 88.3125a106.3125 106.3125 0 0 0-12.9375 35.4375 108.5625 108.5625 0 0 0 0 37.6875 115.875 115.875 0 0 0 13.5 36.5625 129.375 129.375 0 0 0 27 32.625 141.1875 141.1875 0 0 0 21.9375 15.75 149.0625 149.0625 0 0 0 100.6875 18 137.25 137.25 0 0 0 24.75-6.75 127.6875 127.6875 0 0 0 22.5-11.25 122.625 122.625 0 0 0 20.25-15.75 112.5 112.5 0 0 0 26.4375-40.5 106.875 106.875 0 0 0 6.1875-45.5625 112.5 112.5 0 0 0-14.0625-43.875z m-334.125-250.3125L516.85771484 576.6875a22.5 22.5 0 0 1-32.0625 0l-47.25-47.8125a22.5 22.5 0 1 1 32.0625-32.0625l31.5 31.5 81.5625-81a22.5 22.5 0 0 1 32.0625 32.0625z" /></svg>