<?xml version="1.0" standalone="no"?><!DOCTYPE svg PUBLIC "-//W3C//DTD SVG 1.1//EN" "http://www.w3.org/Graphics/SVG/1.1/DTD/svg11.dtd"><svg class="icon" width="20px" height="20.00px" viewBox="0 0 1024 1024" version="1.1" xmlns="http://www.w3.org/2000/svg"><path d="M917.544554 1024h-811.089108A25.346535 25.346535 0 0 1 81.108911 998.653465v-892.198019A25.346535 25.346535 0 0 1 106.455446 81.108911h114.870495a25.346535 25.346535 0 0 1 0 50.693069H131.80198v841.504951h760.39604V131.80198h-92.362772a25.346535 25.346535 0 0 1 0-50.693069H917.544554a25.346535 25.346535 0 0 1 25.346535 25.346535v892.198019a25.346535 25.346535 0 0 1-25.346535 25.346535zM795.881188 212.910891h-567.762376a25.346535 25.346535 0 0 1-25.346535-25.346535v-162.217821A25.346535 25.346535 0 0 1 228.118812 0h567.762376A25.346535 25.346535 0 0 1 821.227723 25.346535v162.217821a25.346535 25.346535 0 0 1-25.346535 25.346535zM253.465347 162.217822h517.069306V50.693069H253.465347zM613.386139 364.990099h-162.217822a25.346535 25.346535 0 0 1 0-50.693069h162.217822a25.346535 25.346535 0 0 1 0 50.693069zM775.60396 446.09901h-324.435643a25.346535 25.346535 0 0 1 0-50.693069h324.435643a25.346535 25.346535 0 0 1 0 50.693069zM613.386139 598.178218h-162.217822a25.346535 25.346535 0 0 1 0-50.693069h162.217822a25.346535 25.346535 0 0 1 0 50.693069zM775.60396 679.287129h-324.435643a25.346535 25.346535 0 0 1 0-50.69307h324.435643a25.346535 25.346535 0 0 1 0 50.69307zM370.059406 686.08h-121.663366a25.346535 25.346535 0 0 1-25.346535-25.346535v-121.663366a25.346535 25.346535 0 0 1 25.346535-25.346535h121.663366a25.346535 25.346535 0 0 1 25.346535 25.346535v121.663366a25.346535 25.346535 0 0 1-25.346535 25.346535z m-96.316832-50.693069h70.970297v-70.970297h-70.970297zM613.386139 824.573465h-162.217822a25.346535 25.346535 0 0 1 0-50.693069h162.217822a25.346535 25.346535 0 0 1 0 50.693069zM775.60396 905.682376h-324.435643a25.346535 25.346535 0 0 1 0-50.693069h324.435643a25.346535 25.346535 0 0 1 0 50.693069zM370.059406 915.82099h-121.663366a25.346535 25.346535 0 0 1-25.346535-25.346535v-121.663366a25.346535 25.346535 0 0 1 25.346535-25.346535h121.663366a25.346535 25.346535 0 0 1 25.346535 25.346535v121.663366a25.346535 25.346535 0 0 1-25.346535 25.346535z m-96.316832-50.693069h70.970297v-70.970297h-70.970297zM370.059406 456.237624h-121.663366a25.346535 25.346535 0 0 1-25.346535-25.346535v-121.663366a25.346535 25.346535 0 0 1 25.346535-25.346535h121.663366a25.346535 25.346535 0 0 1 25.346535 25.346535v121.663366a25.346535 25.346535 0 0 1-25.346535 25.346535zM273.742574 405.544554h70.970297v-70.970297h-70.970297z" /></svg>